# xmcd
#
# Track frame offsets: 
#        183
#        20383
#        35883
#        48195
#        63783
#        80433
#        93270
#        114708
#        130308
#        144608
#        156320
#        171333
#
# Disc length: 2455 seconds
#
# Revision: 1
# Processed by: cddbd v1.5.2PL0 Copyright (c) Steve Scherf et al.
# Submitted via: ExactAudioCopyFreeDBPlugin 1.0
#
DISCID=a109950c
DTITLE=Patty Pravo - Bravo Pravo
DYEAR=1970
DGENRE=
TTITLE0=Tutt'Al Più
TTITLE1=Torna Insieme A Lei
TTITLE2=Cry Me A River
TTITLE3=Un Poco Di Pioggia
TTITLE4=Chissà Come Finirò
TTITLE5=Il Poeta
TTITLE6=Non Andare Via
TTITLE7=Metti Una Sera A Cena
TTITLE8=You Make Me Love You
TTITLE9=Chi Ti Darà
TTITLE10=The Long And Winding Road
TTITLE11=Parlez Moi
EXTD=
EXTT0=
EXTT1=
EXTT2=
EXTT3=
EXTT4=
EXTT5=
EXTT6=
EXTT7=
EXTT8=
EXTT9=
EXTT10=
EXTT11=
PLAYORDER=
